HIERARCHY
ROOT Hips
{
  OFFSET 5.72205e-005 65.662 3.42586
  CHANNELS 6 Xposition Yposition Zposition Zrotation Xrotation Yrotation
  JOINT Chest
  {
    OFFSET 0 8.7983 -4.7612
    CHANNELS 6 Xposition Yposition Zposition Zrotation Xrotation Yrotation
    JOINT Chest2
    {
      OFFSET 0 8.0291 0.4195
      CHANNELS 6 Xposition Yposition Zposition Zrotation Xrotation Yrotation
      JOINT Chest3
      {
        OFFSET 0 9.9351 -2.2114
        CHANNELS 6 Xposition Yposition Zposition Zrotation Xrotation Yrotation
        JOINT Neck
        {
          OFFSET 0 22.3885 -0.4656
          CHANNELS 6 Xposition Yposition Zposition Zrotation Xrotation Yrotation
          JOINT Head
          {
            OFFSET -0.0001 12.643 3.4389
            CHANNELS 6 Xposition Yposition Zposition Zrotation Xrotation Yrotation
            End Site
            {
              OFFSET 0.0001 17.6655 0.5274
            }
          }
        }
        JOINT LeftCollar
        {
          OFFSET 2.2603 21.606 7.4023
          CHANNELS 6 Xposition Yposition Zposition Zrotation Xrotation Yrotation
          JOINT LeftShoulder
          {
            OFFSET 13.5163 -1.1332 -5.0146
            CHANNELS 6 Xposition Yposition Zposition Zrotation Xrotation Yrotation
            JOINT LeftElbow
            {
              OFFSET -0.0995 -28.05 -0.2431
              CHANNELS 6 Xposition Yposition Zposition Zrotation Xrotation Yrotation
              JOINT LeftWrist
              {
                OFFSET 0.0679 -23.3996 -0.1402
                CHANNELS 6 Xposition Yposition Zposition Zrotation Xrotation Yrotation
                JOINT LeftFinger1
                {
                  OFFSET 0.7932 -9.069 2.5189
                  CHANNELS 6 Xposition Yposition Zposition Zrotation Xrotation Yrotation
                  JOINT LeftFinger11
                  {
                    OFFSET -0.8272 -3.3923 0.5977
                    CHANNELS 6 Xposition Yposition Zposition Zrotation Xrotation Yrotation
                    JOINT LeftFinger12
                    {
                      OFFSET -0.5649 -2.3158 0.4082
                      CHANNELS 6 Xposition Yposition Zposition Zrotation Xrotation Yrotation
                      End Site
                      {
                        OFFSET -0.4919 -1.6479 0.2673
                      }
                    }
                  }
                }
                JOINT LeftFinger2
                {
                  OFFSET 0.9159 -9.2044 0.2193
                  CHANNELS 6 Xposition Yposition Zposition Zrotation Xrotation Yrotation
                  JOINT LeftFinger21
                  {
                    OFFSET 0.0117 -4.1944 -0.0248
                    CHANNELS 6 Xposition Yposition Zposition Zrotation Xrotation Yrotation
                    JOINT LeftFinger22
                    {
                      OFFSET 0.0071 -2.3249 -0.0142
                      CHANNELS 6 Xposition Yposition Zposition Zrotation Xrotation Yrotation
                      End Site
                      {
                        OFFSET -0.1475 -2.0882 0.0028
                      }
                    }
                  }
                }
                JOINT LeftFinger3
                {
                  OFFSET 0.6113 -8.7231 -2.0637
                  CHANNELS 6 Xposition Yposition Zposition Zrotation Xrotation Yrotation
                  JOINT LeftFinger31
                  {
                    OFFSET -0.1927 -3.8059 -0.2383
                    CHANNELS 6 Xposition Yposition Zposition Zrotation Xrotation Yrotation
                    JOINT LeftFinger32
                    {
                      OFFSET -0.1091 -2.1688 -0.1362
                      CHANNELS 6 Xposition Yposition Zposition Zrotation Xrotation Yrotation
                      End Site
                      {
                        OFFSET -0.2358 -1.9176 -0.0906
                      }
                    }
                  }
                }
                JOINT LeftFinger4
                {
                  OFFSET -0.6151 -8.0947 -3.5641
                  CHANNELS 6 Xposition Yposition Zposition Zrotation Xrotation Yrotation
                  JOINT LeftFinger41
                  {
                    OFFSET -0.4882 -2.341 -0.6462
                    CHANNELS 6 Xposition Yposition Zposition Zrotation Xrotation Yrotation
                    JOINT LeftFinger42
                    {
                      OFFSET -0.3575 -1.7167 -0.4742
                      CHANNELS 6 Xposition Yposition Zposition Zrotation Xrotation Yrotation
                      End Site
                      {
                        OFFSET -0.4187 -1.5237 -0.3496
                      }
                    }
                  }
                }
                JOINT LeftFinger0
                {
                  OFFSET -1.42 -1.8761 1.4223
                  CHANNELS 6 Xposition Yposition Zposition Zrotation Xrotation Yrotation
                  JOINT LeftFinger01
                  {
                    OFFSET -1.1471 -3.4929 2.6334
                    CHANNELS 6 Xposition Yposition Zposition Zrotation Xrotation Yrotation
                    JOINT LeftFinger02
                    {
                      OFFSET -0.823 -2.3 1.6571
                      CHANNELS 6 Xposition Yposition Zposition Zrotation Xrotation Yrotation
                      End Site
                      {
                        OFFSET -0.5822 -1.6914 1.1582
                      }
                    }
                  }
                }
              }
            }
          }
        }
        JOINT RightCollar
        {
          OFFSET -2.2603 21.606 7.4023
          CHANNELS 6 Xposition Yposition Zposition Zrotation Xrotation Yrotation
          JOINT RightShoulder
          {
            OFFSET -13.5187 -1.1334 -5.0155
            CHANNELS 6 Xposition Yposition Zposition Zrotation Xrotation Yrotation
            JOINT RightElbow
            {
              OFFSET 0.0994 -28.0499 -0.2431
              CHANNELS 6 Xposition Yposition Zposition Zrotation Xrotation Yrotation
              JOINT RightWrist
              {
                OFFSET -0.0679 -23.3996 -0.1402
                CHANNELS 6 Xposition Yposition Zposition Zrotation Xrotation Yrotation
                JOINT RightFinger1
                {
                  OFFSET -0.7932 -9.0691 2.5189
                  CHANNELS 6 Xposition Yposition Zposition Zrotation Xrotation Yrotation
                  JOINT RightFinger11
                  {
                    OFFSET 0.8272 -3.3923 0.5977
                    CHANNELS 6 Xposition Yposition Zposition Zrotation Xrotation Yrotation
                    JOINT RightFinger12
                    {
                      OFFSET 0.565 -2.3158 0.4082
                      CHANNELS 6 Xposition Yposition Zposition Zrotation Xrotation Yrotation
                      End Site
                      {
                        OFFSET 0.4919 -1.6479 0.2673
                      }
                    }
                  }
                }
                JOINT RightFinger2
                {
                  OFFSET -0.916 -9.2044 0.2193
                  CHANNELS 6 Xposition Yposition Zposition Zrotation Xrotation Yrotation
                  JOINT RightFinger21
                  {
                    OFFSET -0.0117 -4.1944 -0.0248
                    CHANNELS 6 Xposition Yposition Zposition Zrotation Xrotation Yrotation
                    JOINT RightFinger22
                    {
                      OFFSET -0.0071 -2.3249 -0.0142
                      CHANNELS 6 Xposition Yposition Zposition Zrotation Xrotation Yrotation
                      End Site
                      {
                        OFFSET 0.1475 -2.0882 0.0028
                      }
                    }
                  }
                }
                JOINT RightFinger3
                {
                  OFFSET -0.6113 -8.7231 -2.0637
                  CHANNELS 6 Xposition Yposition Zposition Zrotation Xrotation Yrotation
                  JOINT RightFinger31
                  {
                    OFFSET 0.1927 -3.8059 -0.2383
                    CHANNELS 6 Xposition Yposition Zposition Zrotation Xrotation Yrotation
                    JOINT RightFinger32
                    {
                      OFFSET 0.1091 -2.1688 -0.1362
                      CHANNELS 6 Xposition Yposition Zposition Zrotation Xrotation Yrotation
                      End Site
                      {
                        OFFSET 0.2358 -1.9176 -0.0906
                      }
                    }
                  }
                }
                JOINT RightFinger4
                {
                  OFFSET 0.6151 -8.0947 -3.564
                  CHANNELS 6 Xposition Yposition Zposition Zrotation Xrotation Yrotation
                  JOINT RightFinger41
                  {
                    OFFSET 0.4882 -2.341 -0.6462
                    CHANNELS 6 Xposition Yposition Zposition Zrotation Xrotation Yrotation
                    JOINT RightFinger42
                    {
                      OFFSET 0.3574 -1.7166 -0.4742
                      CHANNELS 6 Xposition Yposition Zposition Zrotation Xrotation Yrotation
                      End Site
                      {
                        OFFSET 0.4187 -1.5237 -0.3496
                      }
                    }
                  }
                }
                JOINT RightFinger0
                {
                  OFFSET 1.4199 -1.8761 1.4221
                  CHANNELS 6 Xposition Yposition Zposition Zrotation Xrotation Yrotation
                  JOINT RightFinger01
                  {
                    OFFSET 1.1472 -3.4929 2.6336
                    CHANNELS 6 Xposition Yposition Zposition Zrotation Xrotation Yrotation
                    JOINT RightFinger02
                    {
                      OFFSET 0.8229 -2.3 1.6571
                      CHANNELS 6 Xposition Yposition Zposition Zrotation Xrotation Yrotation
                      End Site
                      {
                        OFFSET 0.5822 -1.6914 1.1582
                      }
                    }
                  }
                }
              }
            }
          }
        }
      }
    }
  }
  JOINT RightHip
  {
    OFFSET -9.412 3.9771 -0.7758
    CHANNELS 6 Xposition Yposition Zposition Zrotation Xrotation Yrotation
    JOINT RightKnee
    {
      OFFSET -0.7531 -40.938 0
      CHANNELS 6 Xposition Yposition Zposition Zrotation Xrotation Yrotation
      JOINT RightAnkle
      {
        OFFSET 0 -40.1986 0
        CHANNELS 6 Xposition Yposition Zposition Zrotation Xrotation Yrotation
        JOINT RightToe
        {
          OFFSET 0 -4.4182 9.239
          CHANNELS 6 Xposition Yposition Zposition Zrotation Xrotation Yrotation
          End Site
          {
            OFFSET 0 0 6.1981
          }
        }
      }
    }
  }
  JOINT LeftHip
  {
    OFFSET 9.4119 3.9773 -0.7758
    CHANNELS 6 Xposition Yposition Zposition Zrotation Xrotation Yrotation
    JOINT LeftKnee
    {
      OFFSET 0.7532 -40.9383 0
      CHANNELS 6 Xposition Yposition Zposition Zrotation Xrotation Yrotation
      JOINT LeftAnkle
      {
        OFFSET 0 -40.1986 0
        CHANNELS 6 Xposition Yposition Zposition Zrotation Xrotation Yrotation
        JOINT LeftToe
        {
          OFFSET 0 -4.4182 9.239
          CHANNELS 6 Xposition Yposition Zposition Zrotation Xrotation Yrotation
          End Site
          {
            OFFSET 0 0 6.1981
          }
        }
      }
    }
  }
}
MOTION
Frames:	4
Frame Time:	0.0333333
5.72205e-005 65.662 3.42586 0 0 -0 0 8.7983 -4.7612 0 0 -0 0 8.0291 0.4195 0 0 -0 0 9.9351 -2.2114 0 0 -0 0 22.3885 -0.4656 0 0 -0 -0.0001 12.643 3.4389 0 0 -0 2.2603 21.606 7.4023 0 0 -12.5014 13.5163 -1.1332 -5.0146 88.1196 14.2451 10.6914 -0.0995 -28.05 -0.2431 -0.00160068 -0.00239207 0.000740045 0.0679 -23.3996 -0.1402 -8.4365e-005 7.00714e-005 -9.52055e-007 0.7932 -9.069 2.5189 9.93923e-017 -1.98785e-016 -1.59028e-015 -0.8272 -3.3923 0.5977 9.93923e-017 -5.96354e-016 -1.59028e-015 -0.5649 -2.3158 0.4082 -9.93923e-017 -5.96354e-016 -1.59028e-015 0.9159 -9.2044 0.2193 9.93923e-017 -1.98785e-016 -1.59028e-015 0.0117 -4.1944 -0.0248 -0.0128176 0.00232552 8.52707e-005 0.0071 -2.3249 -0.0142 9.93923e-017 5.96354e-016 -0 0.6113 -8.7231 -2.0637 9.93923e-017 -1.98785e-016 -1.59028e-015 -0.1927 -3.8059 -0.2383 -0.0160551 0.00299681 0.000857156 -0.1091 -2.1688 -0.1362 -2.48481e-016 0 3.18055e-015 -0.6151 -8.0947 -3.5641 9.93923e-017 -1.98785e-016 -1.59028e-015 -0.4882 -2.341 -0.6462 -0.0125865 0.0031206 0.00282719 -0.3575 -1.7167 -0.4742 0 1.98785e-016 -0 -1.42 -1.8761 1.4223 9.93923e-017 -1.98785e-016 -1.59028e-015 -1.1471 -3.4929 2.6334 9.93923e-017 -5.96354e-016 -1.59028e-015 -0.823 -2.3 1.6571 -9.93923e-017 -5.96354e-016 -1.59028e-015 -2.2603 21.606 7.4023 -0.865644 0.16582 7.03859 -13.5187 -1.1334 -5.0155 -88.0329 10.2057 -10.5567 0.0994 -28.0499 -0.2431 0.0015593 -0.00248883 -0.000788628 -0.0679 -23.3996 -0.1402 7.87605e-005 4.10553e-005 1.24965e-005 -0.7932 -9.0691 2.5189 -3.97569e-016 -7.95139e-016 3.18055e-015 0.8272 -3.3923 0.5977 -1.98785e-016 -3.97569e-016 3.18055e-015 0.565 -2.3158 0.4082 -1.98785e-016 0 3.18055e-015 -0.916 -9.2044 0.2193 -3.97569e-016 -7.95139e-016 3.18055e-015 -0.0117 -4.1944 -0.0248 0.0129473 0.00231697 -8.70038e-005 -0.0071 -2.3249 -0.0142 9.93923e-017 -7.95139e-016 1.59028e-015 -0.6113 -8.7231 -2.0637 -3.97569e-016 -7.95139e-016 3.18055e-015 0.1927 -3.8059 -0.2383 0.0163314 0.00303369 -0.000872333 0.1091 -2.1688 -0.1362 3.97569e-016 7.95139e-016 -3.18055e-015 0.6151 -8.0947 -3.564 -3.97569e-016 -7.95139e-016 3.18055e-015 0.4882 -2.341 -0.6462 0.0145763 0.00367772 -0.00326275 0.3574 -1.7166 -0.4742 9.93923e-017 -3.97569e-016 -0 1.4199 -1.8761 1.4221 -3.97569e-016 -7.95139e-016 3.18055e-015 1.1472 -3.4929 2.6336 -1.98785e-016 -3.97569e-016 3.18055e-015 0.8229 -2.3 1.6571 -1.98785e-016 0 3.18055e-015 -9.412 3.9771 -0.7758 3.42482 1.32465 -0.0626183 -0.7531 -40.938 0 0.000117508 0.717283 0.000978199 0 -40.1986 0 -3.4257 -2.04197 -0.0604716 8.88178e-016 -4.4182 9.239 6.47761e-025 0 -0 9.4119 3.9773 -0.7758 -3.42483 1.34017 0.0627307 0.7532 -40.9383 -2.22045e-016 -0.000193936 0.682302 -0.0013703 -8.88179e-016 -40.1986 0 3.42574 -2.02253 0.0595886 -8.88178e-016 -4.4182 9.239 -8.45714e-024 0 -7.40531e-025 
-84.2647 0.616066 9.67132 -160.803 -89.9972 -71.8041 4.44089e-016 8.7983 -4.7612 -0.328153 -0.251849 -0.280066 0 8.0291 0.4195 -0.657558 -0.502117 -0.561565 4.44089e-016 9.9351 -2.2114 -0.657566 -0.502101 -0.561564 -8.88178e-016 22.3885 -0.4656 3.82812 -0.786081 -0.0106217 -0.0001 12.643 3.4389 19.1606 -1.65065 -0.145242 2.2603 21.606 7.4023 13.5275 0.843023 -6.12691 13.5163 -1.1332 -5.0146 153.905 -76.3257 147.355 -0.0995 -28.05 -0.2431 -10.2785 -21.468 27.9428 0.0679 -23.3996 -0.1402 -67.5857 28.6057 -5.80458 0.7932 -9.069 2.5189 -2.27178e-007 -3.5062e-007 2.96737e-006 -0.8272 -3.3923 0.5977 2.08099e-006 5.90213e-006 4.74434e-007 -0.5649 -2.3158 0.4082 -8.1966e-007 2.62123e-006 1.589e-006 0.9159 -9.2044 0.2193 -2.27178e-007 -3.5062e-007 2.96737e-006 0.0117 -4.1944 -0.0248 -0.0127808 0.00232024 8.78943e-005 0.0071 -2.3249 -0.0142 -1.25485e-006 2.40994e-006 4.50888e-006 0.6113 -8.7231 -2.0637 -2.27178e-007 -3.5062e-007 2.96737e-006 -0.1927 -3.8059 -0.2383 -0.0159648 0.00298382 0.000845803 -0.1091 -2.1688 -0.1362 -6.44009e-007 1.33226e-006 2.87248e-006 -0.6151 -8.0947 -3.5641 -2.27178e-007 -3.5062e-007 2.96737e-006 -0.4882 -2.341 -0.6462 -0.0126224 0.00313588 0.00283821 -0.3575 -1.7167 -0.4742 -4.16194e-007 1.68347e-006 -9.49095e-008 -1.42 -1.8761 1.4223 -2.27178e-007 -3.5062e-007 2.96737e-006 -1.1471 -3.4929 2.6334 2.08099e-006 5.90213e-006 4.74434e-007 -0.823 -2.3 1.6571 -8.1966e-007 2.62123e-006 1.589e-006 -2.2603 21.606 7.4023 -19.0436 1.83166 -1.05192 -13.5187 -1.1334 -5.0155 -173.346 -76.7957 -167.888 0.0994 -28.0499 -0.2431 9.78438 -40.7592 -31.425 -0.0679 -23.3996 -0.1402 51.326 9.18137 -1.32539 -0.7932 -9.0691 2.5189 1.59028e-015 -3.33958e-014 -0 0.8272 -3.3923 0.5977 -4.43625e-007 2.11031e-006 2.08072e-006 0.565 -2.3158 0.4082 3.18055e-015 -3.18055e-015 3.18055e-015 -0.916 -9.2044 0.2193 1.59028e-015 -3.33958e-014 -0 -0.0117 -4.1944 -0.0248 0.0129547 0.00231268 -8.60537e-005 -0.0071 -2.3249 -0.0142 5.29669e-031 -4.77083e-015 6.36111e-015 -0.6113 -8.7231 -2.0637 1.59028e-015 -3.33958e-014 -0 0.1927 -3.8059 -0.2383 0.0164116 0.00304569 -0.000871969 0.1091 -2.1688 -0.1362 3.18055e-015 -3.18055e-015 -9.54166e-015 0.6151 -8.0947 -3.564 1.59028e-015 -3.33958e-014 -0 0.4882 -2.341 -0.6462 0.0145704 0.00366679 -0.00326327 0.3574 -1.7166 -0.4742 0 0 -0 1.4199 -1.8761 1.4221 1.59028e-015 -3.33958e-014 -0 1.1472 -3.4929 2.6336 -4.43625e-007 2.11031e-006 2.08072e-006 0.8229 -2.3 1.6571 3.18055e-015 -3.18055e-015 3.18055e-015 -9.412 3.9771 -0.7758 -45.1137 -30.8783 -79.9682 -0.7531 -40.938 0 155.622 39.5907 -151.826 0 -40.1986 0 7.60583 -8.79352 21.6834 0 -4.4182 9.239 4.3784e-007 1.5254e-007 2.29492e-006 9.4119 3.9773 -0.7758 -14.165 -17.8817 -10.5849 0.7532 -40.9383 0 22.3092 67.9782 -2.95572 0 -40.1986 0 83.8891 0.593327 -53.88 0 -4.4182 9.239 -1.25687e-008 4.3179e-007 8.37993e-007 
-84.2647 0.616066 9.67132 -160.803 -89.9972 -71.8041 4.44089e-016 8.7983 -4.7612 -0.328153 -0.251849 -0.280066 0 8.0291 0.4195 -0.657558 -0.502117 -0.561565 4.44089e-016 9.9351 -2.2114 -0.657566 -0.502101 -0.561564 -8.88178e-016 22.3885 -0.4656 4.13811 -0.771132 -0.00834586 -0.0001 12.643 3.4389 19.3546 -1.71147 -0.245641 2.2603 21.606 7.4023 13.5275 0.843023 -6.12691 13.5163 -1.1332 -5.0146 153.905 -76.3257 147.355 -0.0995 -28.05 -0.2431 -10.2785 -21.468 27.9428 0.0679 -23.3996 -0.1402 -67.5857 28.6057 -5.80458 0.7932 -9.069 2.5189 -2.27178e-007 -3.5062e-007 2.96737e-006 -0.8272 -3.3923 0.5977 2.08099e-006 5.90213e-006 4.74434e-007 -0.5649 -2.3158 0.4082 -8.1966e-007 2.62123e-006 1.589e-006 0.9159 -9.2044 0.2193 -2.27178e-007 -3.5062e-007 2.96737e-006 0.0117 -4.1944 -0.0248 -0.0127808 0.00232024 8.78943e-005 0.0071 -2.3249 -0.0142 -1.25485e-006 2.40994e-006 4.50888e-006 0.6113 -8.7231 -2.0637 -2.27178e-007 -3.5062e-007 2.96737e-006 -0.1927 -3.8059 -0.2383 -0.0159648 0.00298382 0.000845803 -0.1091 -2.1688 -0.1362 -6.44009e-007 1.33226e-006 2.87248e-006 -0.6151 -8.0947 -3.5641 -2.27178e-007 -3.5062e-007 2.96737e-006 -0.4882 -2.341 -0.6462 -0.0126224 0.00313588 0.00283821 -0.3575 -1.7167 -0.4742 -4.16194e-007 1.68347e-006 -9.49095e-008 -1.42 -1.8761 1.4223 -2.27178e-007 -3.5062e-007 2.96737e-006 -1.1471 -3.4929 2.6334 2.08099e-006 5.90213e-006 4.74434e-007 -0.823 -2.3 1.6571 -8.1966e-007 2.62123e-006 1.589e-006 -2.2603 21.606 7.4023 -19.0436 1.83166 -1.05192 -13.5187 -1.1334 -5.0155 -173.346 -76.7957 -167.888 0.0994 -28.0499 -0.2431 9.78438 -40.7592 -31.425 -0.0679 -23.3996 -0.1402 51.326 9.18137 -1.32539 -0.7932 -9.0691 2.5189 1.59028e-015 -3.33958e-014 -0 0.8272 -3.3923 0.5977 -4.43625e-007 2.11031e-006 2.08072e-006 0.565 -2.3158 0.4082 3.18055e-015 -3.18055e-015 3.18055e-015 -0.916 -9.2044 0.2193 1.59028e-015 -3.33958e-014 -0 -0.0117 -4.1944 -0.0248 0.0129547 0.00231268 -8.60537e-005 -0.0071 -2.3249 -0.0142 5.29669e-031 -4.77083e-015 6.36111e-015 -0.6113 -8.7231 -2.0637 1.59028e-015 -3.33958e-014 -0 0.1927 -3.8059 -0.2383 0.0164116 0.00304569 -0.000871969 0.1091 -2.1688 -0.1362 3.18055e-015 -3.18055e-015 -9.54166e-015 0.6151 -8.0947 -3.564 1.59028e-015 -3.33958e-014 -0 0.4882 -2.341 -0.6462 0.0145704 0.00366679 -0.00326327 0.3574 -1.7166 -0.4742 0 0 -0 1.4199 -1.8761 1.4221 1.59028e-015 -3.33958e-014 -0 1.1472 -3.4929 2.6336 -4.43625e-007 2.11031e-006 2.08072e-006 0.8229 -2.3 1.6571 3.18055e-015 -3.18055e-015 3.18055e-015 -9.412 3.9771 -0.7758 -45.1137 -30.8783 -79.9682 -0.7531 -40.938 0 155.622 39.5907 -151.826 0 -40.1986 0 7.60583 -8.79352 21.6834 0 -4.4182 9.239 4.3784e-007 1.5254e-007 2.29492e-006 9.4119 3.9773 -0.7758 -14.165 -17.8818 -10.5849 0.7532 -40.9383 0 22.3091 67.9782 -2.95571 -1.77636e-015 -40.1986 1.42109e-014 83.8891 0.593337 -53.88 0 -4.4182 9.239 -1.18966e-007 -2.42737e-008 8.29691e-007 
-84.2647 0.616066 9.67132 -160.803 -89.9972 -71.8041 4.44089e-016 8.7983 -4.7612 -0.328153 -0.251849 -0.280066 0 8.0291 0.4195 -0.657558 -0.502117 -0.561565 4.44089e-016 9.9351 -2.2114 -0.657566 -0.502101 -0.561564 -8.88178e-016 22.3885 -0.4656 4.44824 -0.756146 -0.00614141 -0.0001 12.643 3.4389 19.5485 -1.77262 -0.34587 2.2603 21.606 7.4023 13.5275 0.843023 -6.12691 13.5163 -1.1332 -5.0146 153.905 -76.3258 147.356 -0.0995 -28.05 -0.2431 -10.2784 -21.468 27.9427 0.0679 -23.3996 -0.1402 -67.5857 28.6056 -5.80456 0.7932 -9.069 2.5189 7.95139e-016 6.36111e-015 -6.36111e-015 -0.8272 -3.3923 0.5977 7.95139e-016 1.59028e-015 -3.18055e-015 -0.5649 -2.3158 0.4082 -1.59028e-015 1.59028e-015 -9.54166e-015 0.9159 -9.2044 0.2193 7.95139e-016 6.36111e-015 -6.36111e-015 0.0117 -4.1944 -0.0248 -0.0128429 0.00233279 8.58154e-005 0.0071 -2.3249 -0.0142 -7.95139e-016 -7.95139e-015 6.36111e-015 0.6113 -8.7231 -2.0637 7.95139e-016 6.36111e-015 -6.36111e-015 -0.1927 -3.8059 -0.2383 -0.0161027 0.00300903 0.000865148 -0.1091 -2.1688 -0.1362 1.76556e-031 1.59028e-015 -6.36111e-015 -0.6151 -8.0947 -3.5641 7.95139e-016 6.36111e-015 -6.36111e-015 -0.4882 -2.341 -0.6462 -0.0125642 0.00311835 0.00282432 -0.3575 -1.7167 -0.4742 -1.76556e-031 3.18055e-015 3.18055e-015 -1.42 -1.8761 1.4223 7.95139e-016 6.36111e-015 -6.36111e-015 -1.1471 -3.4929 2.6334 7.95139e-016 1.59028e-015 -3.18055e-015 -0.823 -2.3 1.6571 -1.59028e-015 1.59028e-015 -9.54166e-015 -2.2603 21.606 7.4023 -19.0436 1.83166 -1.05192 -13.5187 -1.1334 -5.0155 -173.346 -76.7958 -167.888 0.0994 -28.0499 -0.2431 9.7844 -40.7592 -31.425 -0.0679 -23.3996 -0.1402 51.326 9.1814 -1.32541 -0.7932 -9.0691 2.5189 0 0 -6.36111e-015 0.8272 -3.3923 0.5977 -1.59028e-015 1.59028e-015 6.36111e-015 0.565 -2.3158 0.4082 1.59028e-015 0 -0 -0.916 -9.2044 0.2193 0 0 -6.36111e-015 -0.0117 -4.1944 -0.0248 0.0129604 0.00231747 -8.38882e-005 -0.0071 -2.3249 -0.0142 -1.59028e-015 0 3.18055e-015 -0.6113 -8.7231 -2.0637 0 0 -6.36111e-015 0.1927 -3.8059 -0.2383 0.0164201 0.00304666 -0.000865296 0.1091 -2.1688 -0.1362 -1.59028e-015 3.18055e-015 -1.90833e-014 0.6151 -8.0947 -3.564 0 0 -6.36111e-015 0.4882 -2.341 -0.6462 0.0144914 0.00365835 -0.00324489 0.3574 -1.7166 -0.4742 3.2988e-006 -5.41509e-007 -3.43105e-007 1.4199 -1.8761 1.4221 0 0 -6.36111e-015 1.1472 -3.4929 2.6336 -1.59028e-015 1.59028e-015 6.36111e-015 0.8229 -2.3 1.6571 1.59028e-015 0 -0 -9.412 3.9771 -0.7758 -45.1138 -30.8781 -79.9682 -0.7531 -40.938 -7.10543e-015 155.622 39.5906 -151.826 0 -40.1986 3.55271e-015 7.60579 -8.79352 21.6834 0 -4.4182 9.239 -6.50795e-007 -5.47541e-007 -2.28294e-006 9.4119 3.9773 -0.7758 -14.165 -17.8817 -10.5849 0.7532 -40.9383 -1.42109e-014 22.3091 67.9782 -2.95566 3.55271e-015 -40.1986 7.10543e-015 83.8891 0.593337 -53.88 1.42109e-014 -4.4182 9.239 -2.65993e-008 4.28856e-007 -2.07564e-009 
